<svg width="50" height="50" viewBox="0 0 50 50" fill="none" xmlns="http://www.w3.org/2000/svg">
<mask id="path-1-inside-1_173_128" fill="white">
<path d="M0 49.9999L7.28142e-05 0H50L49.9999 49.9999H0Z"/>
</mask>
<path d="M27.2523 11.7342H29.7523V6.73422H27.2523V11.7342ZM9.23429 9.23422V6.73422H6.73429L6.73429 9.23422L9.23429 9.23422ZM9.23429 18.2432L6.73429 18.2432L6.7343 20.7432H9.23429V18.2432ZM27.2523 18.2432L29.7523 18.2432L29.7523 15.7432H27.2523V18.2432ZM27.2523 27.2522V29.7522H29.7523L29.7523 27.2522L27.2523 27.2522ZM9.23429 24.7522H6.73429V29.7522H9.23429V24.7522ZM36.509 9.23422V6.73422H31.509V9.23422H36.509ZM34.009 34.009V36.509H36.509V34.009H34.009ZM9.23429 31.509H6.73429V36.509H9.23429V31.509ZM9.23429 38.2657H6.73429V43.2657H9.23429V38.2657ZM40.7658 40.7657V43.2657H43.2658V40.7657H40.7658ZM43.2658 9.23422V6.73422H38.2658V9.23422H43.2658ZM27.2523 6.73422H9.23429V11.7342H27.2523V6.73422ZM6.73429 9.23422L6.73429 18.2432L11.7343 18.2432L11.7343 9.23422L6.73429 9.23422ZM9.23429 20.7432H27.2523V15.7432H9.23429V20.7432ZM24.7523 18.2432L24.7523 27.2522L29.7523 27.2522L29.7523 18.2432L24.7523 18.2432ZM27.2523 24.7522H9.23429V29.7522H27.2523V24.7522ZM31.509 9.23422V34.009H36.509V9.23422H31.509ZM34.009 31.509H9.23429V36.509H34.009V31.509ZM9.23429 43.2657H40.7658V38.2657H9.23429V43.2657ZM43.2658 40.7657V9.23422H38.2658V40.7657H43.2658ZM7.28142e-05 0V-5H-4.99992L-4.99993 -7.28143e-06L7.28142e-05 0ZM0 49.9999L-5 49.9999L-5.00001 54.9999H0V49.9999ZM49.9999 49.9999V54.9999H54.9999L54.9999 49.9999L49.9999 49.9999ZM50 0L55 7.24794e-06L55 -5L50 -5V0ZM-4.99993 -7.28143e-06L-5 49.9999L5 49.9999L5.00007 7.28143e-06L-4.99993 -7.28143e-06ZM0 54.9999H49.9999V44.9999H0V54.9999ZM54.9999 49.9999L55 7.24794e-06L45 -7.24794e-06L44.9999 49.9999L54.9999 49.9999ZM50 -5H7.28142e-05V5H50V-5Z" fill="#EAE3DA" mask="url(#path-1-inside-1_173_128)"/>
</svg>
