<svg width="430" height="938" viewBox="0 0 430 938" fill="none" xmlns="http://www.w3.org/2000/svg">
<path d="M103.75 16.5C103.75 45.1498 80.5248 68.375 51.875 68.375H0V68.375C0 39.7252 23.2252 16.5 51.875 16.5H103.75V16.5Z" fill="#9A4034"/>
<path d="M108.75 16.5C108.75 45.1498 131.975 68.375 160.625 68.375H212.5V68.375C212.5 39.7252 189.275 16.5 160.625 16.5H108.75V16.5Z" fill="#9A4034"/>
<path d="M217.5 68.375C217.5 39.7252 240.725 16.5 269.375 16.5L321.25 16.5V16.5C321.25 45.1498 298.025 68.375 269.375 68.375L217.5 68.375V68.375Z" fill="#9A4034"/>
<path d="M430 68.375C430 39.7252 406.775 16.5 378.125 16.5L326.25 16.5V16.5C326.25 45.1498 349.475 68.375 378.125 68.375L430 68.375V68.375Z" fill="#9A4034"/>
<path d="M103.75 125.25C103.75 96.6002 80.5248 73.375 51.875 73.375H0V73.375C0 102.025 23.2252 125.25 51.875 125.25H103.75V125.25Z" fill="#9A4034"/>
<path d="M108.75 125.25C108.75 96.6002 131.975 73.375 160.625 73.375H212.5V73.375C212.5 102.025 189.275 125.25 160.625 125.25H108.75V125.25Z" fill="#9A4034"/>
<path d="M217.5 73.375C217.5 102.025 240.725 125.25 269.375 125.25L321.25 125.25V125.25C321.25 96.6002 298.025 73.375 269.375 73.375L217.5 73.375V73.375Z" fill="#9A4034"/>
<path d="M430 73.375C430 102.025 406.775 125.25 378.125 125.25L326.25 125.25V125.25C326.25 96.6002 349.475 73.375 378.125 73.375L430 73.375V73.375Z" fill="#9A4034"/>
<path d="M103.75 130.25C103.75 158.9 80.5248 182.125 51.875 182.125H0V182.125C0 153.475 23.2252 130.25 51.875 130.25H103.75V130.25Z" fill="#9A4034"/>
<path d="M108.75 130.25C108.75 158.9 131.975 182.125 160.625 182.125H212.5V182.125C212.5 153.475 189.275 130.25 160.625 130.25H108.75V130.25Z" fill="#9A4034"/>
<path d="M217.5 182.125C217.5 153.475 240.725 130.25 269.375 130.25L321.25 130.25V130.25C321.25 158.9 298.025 182.125 269.375 182.125L217.5 182.125V182.125Z" fill="#9A4034"/>
<path d="M430 182.125C430 153.475 406.775 130.25 378.125 130.25L326.25 130.25V130.25C326.25 158.9 349.475 182.125 378.125 182.125L430 182.125V182.125Z" fill="#9A4034"/>
<path d="M103.75 239C103.75 210.35 80.5248 187.125 51.875 187.125H0V187.125C0 215.775 23.2252 239 51.875 239H103.75V239Z" fill="#9A4034"/>
<path d="M108.75 239C108.75 210.35 131.975 187.125 160.625 187.125H212.5V187.125C212.5 215.775 189.275 239 160.625 239H108.75V239Z" fill="#9A4034"/>
<path d="M217.5 187.125C217.5 215.775 240.725 239 269.375 239L321.25 239V239C321.25 210.35 298.025 187.125 269.375 187.125L217.5 187.125V187.125Z" fill="#9A4034"/>
<path d="M430 187.125C430 215.775 406.775 239 378.125 239L326.25 239V239C326.25 210.35 349.475 187.125 378.125 187.125L430 187.125V187.125Z" fill="#9A4034"/>
<path d="M103.75 244C103.75 272.65 80.5248 295.875 51.875 295.875H0V295.875C0 267.225 23.2252 244 51.875 244H103.75V244Z" fill="#9A4034"/>
<path d="M108.75 244C108.75 272.65 131.975 295.875 160.625 295.875H212.5V295.875C212.5 267.225 189.275 244 160.625 244H108.75V244Z" fill="#9A4034"/>
<path d="M217.5 295.875C217.5 267.225 240.725 244 269.375 244L321.25 244V244C321.25 272.65 298.025 295.875 269.375 295.875L217.5 295.875V295.875Z" fill="#9A4034"/>
<path d="M430 295.875C430 267.225 406.775 244 378.125 244L326.25 244V244C326.25 272.65 349.475 295.875 378.125 295.875L430 295.875V295.875Z" fill="#9A4034"/>
<path d="M103.75 352.75C103.75 324.1 80.5248 300.875 51.875 300.875H0V300.875C0 329.525 23.2252 352.75 51.875 352.75H103.75V352.75Z" fill="#9A4034"/>
<path d="M108.75 352.75C108.75 324.1 131.975 300.875 160.625 300.875H212.5V300.875C212.5 329.525 189.275 352.75 160.625 352.75H108.75V352.75Z" fill="#9A4034"/>
<path d="M217.5 300.875C217.5 329.525 240.725 352.75 269.375 352.75L321.25 352.75V352.75C321.25 324.1 298.025 300.875 269.375 300.875L217.5 300.875V300.875Z" fill="#9A4034"/>
<path d="M430 300.875C430 329.525 406.775 352.75 378.125 352.75L326.25 352.75V352.75C326.25 324.1 349.475 300.875 378.125 300.875L430 300.875V300.875Z" fill="#9A4034"/>
<path d="M103.75 357.75C103.75 386.4 80.5248 409.625 51.875 409.625H0V409.625C0 380.975 23.2252 357.75 51.875 357.75H103.75V357.75Z" fill="#9A4034"/>
<path d="M108.75 357.75C108.75 386.4 131.975 409.625 160.625 409.625H212.5V409.625C212.5 380.975 189.275 357.75 160.625 357.75H108.75V357.75Z" fill="#9A4034"/>
<path d="M217.5 409.625C217.5 380.975 240.725 357.75 269.375 357.75L321.25 357.75V357.75C321.25 386.4 298.025 409.625 269.375 409.625L217.5 409.625V409.625Z" fill="#9A4034"/>
<path d="M430 409.625C430 380.975 406.775 357.75 378.125 357.75L326.25 357.75V357.75C326.25 386.4 349.475 409.625 378.125 409.625L430 409.625V409.625Z" fill="#9A4034"/>
<path d="M103.75 466.5C103.75 437.85 80.5248 414.625 51.875 414.625H0V414.625C0 443.275 23.2252 466.5 51.875 466.5H103.75V466.5Z" fill="#9A4034"/>
<path d="M108.75 466.5C108.75 437.85 131.975 414.625 160.625 414.625H212.5V414.625C212.5 443.275 189.275 466.5 160.625 466.5H108.75V466.5Z" fill="#9A4034"/>
<path d="M217.5 414.625C217.5 443.275 240.725 466.5 269.375 466.5L321.25 466.5V466.5C321.25 437.85 298.025 414.625 269.375 414.625L217.5 414.625V414.625Z" fill="#9A4034"/>
<path d="M430 414.625C430 443.275 406.775 466.5 378.125 466.5L326.25 466.5V466.5C326.25 437.85 349.475 414.625 378.125 414.625L430 414.625V414.625Z" fill="#9A4034"/>
<path d="M103.75 471.5C103.75 500.15 80.5248 523.375 51.875 523.375H0V523.375C0 494.725 23.2252 471.5 51.875 471.5H103.75V471.5Z" fill="#9A4034"/>
<path d="M108.75 471.5C108.75 500.15 131.975 523.375 160.625 523.375H212.5V523.375C212.5 494.725 189.275 471.5 160.625 471.5H108.75V471.5Z" fill="#9A4034"/>
<path d="M217.5 523.375C217.5 494.725 240.725 471.5 269.375 471.5L321.25 471.5V471.5C321.25 500.15 298.025 523.375 269.375 523.375L217.5 523.375V523.375Z" fill="#9A4034"/>
<path d="M430 523.375C430 494.725 406.775 471.5 378.125 471.5L326.25 471.5V471.5C326.25 500.15 349.475 523.375 378.125 523.375L430 523.375V523.375Z" fill="#9A4034"/>
<path d="M103.75 580.25C103.75 551.6 80.5248 528.375 51.875 528.375H0V528.375C0 557.025 23.2252 580.25 51.875 580.25H103.75V580.25Z" fill="#9A4034"/>
<path d="M108.75 580.25C108.75 551.6 131.975 528.375 160.625 528.375H212.5V528.375C212.5 557.025 189.275 580.25 160.625 580.25H108.75V580.25Z" fill="#9A4034"/>
<path d="M217.5 528.375C217.5 557.025 240.725 580.25 269.375 580.25L321.25 580.25V580.25C321.25 551.6 298.025 528.375 269.375 528.375L217.5 528.375V528.375Z" fill="#9A4034"/>
<path d="M430 528.375C430 557.025 406.775 580.25 378.125 580.25L326.25 580.25V580.25C326.25 551.6 349.475 528.375 378.125 528.375L430 528.375V528.375Z" fill="#9A4034"/>
<path d="M103.75 585.25C103.75 613.9 80.5248 637.125 51.875 637.125H0V637.125C0 608.475 23.2252 585.25 51.875 585.25H103.75V585.25Z" fill="#9A4034"/>
<path d="M108.75 585.25C108.75 613.9 131.975 637.125 160.625 637.125H212.5V637.125C212.5 608.475 189.275 585.25 160.625 585.25H108.75V585.25Z" fill="#9A4034"/>
<path d="M217.5 637.125C217.5 608.475 240.725 585.25 269.375 585.25L321.25 585.25V585.25C321.25 613.9 298.025 637.125 269.375 637.125L217.5 637.125V637.125Z" fill="#9A4034"/>
<path d="M430 637.125C430 608.475 406.775 585.25 378.125 585.25L326.25 585.25V585.25C326.25 613.9 349.475 637.125 378.125 637.125L430 637.125V637.125Z" fill="#9A4034"/>
<path d="M103.75 694C103.75 665.35 80.5248 642.125 51.875 642.125H0V642.125C0 670.775 23.2252 694 51.875 694H103.75V694Z" fill="#9A4034"/>
<path d="M108.75 694C108.75 665.35 131.975 642.125 160.625 642.125H212.5V642.125C212.5 670.775 189.275 694 160.625 694H108.75V694Z" fill="#9A4034"/>
<path d="M217.5 642.125C217.5 670.775 240.725 694 269.375 694L321.25 694V694C321.25 665.35 298.025 642.125 269.375 642.125L217.5 642.125V642.125Z" fill="#9A4034"/>
<path d="M430 642.125C430 670.775 406.775 694 378.125 694L326.25 694V694C326.25 665.35 349.475 642.125 378.125 642.125L430 642.125V642.125Z" fill="#9A4034"/>
<path d="M103.75 699C103.75 727.65 80.5248 750.875 51.875 750.875H0V750.875C0 722.225 23.2252 699 51.875 699H103.75V699Z" fill="#9A4034"/>
<path d="M108.75 699C108.75 727.65 131.975 750.875 160.625 750.875H212.5V750.875C212.5 722.225 189.275 699 160.625 699H108.75V699Z" fill="#9A4034"/>
<path d="M217.5 750.875C217.5 722.225 240.725 699 269.375 699L321.25 699V699C321.25 727.65 298.025 750.875 269.375 750.875L217.5 750.875V750.875Z" fill="#9A4034"/>
<path d="M430 750.875C430 722.225 406.775 699 378.125 699L326.25 699V699C326.25 727.65 349.475 750.875 378.125 750.875L430 750.875V750.875Z" fill="#9A4034"/>
<path d="M103.75 807.75C103.75 779.1 80.5248 755.875 51.875 755.875H0V755.875C0 784.525 23.2252 807.75 51.875 807.75H103.75V807.75Z" fill="#9A4034"/>
<path d="M108.75 807.75C108.75 779.1 131.975 755.875 160.625 755.875H212.5V755.875C212.5 784.525 189.275 807.75 160.625 807.75H108.75V807.75Z" fill="#9A4034"/>
<path d="M217.5 755.875C217.5 784.525 240.725 807.75 269.375 807.75L321.25 807.75V807.75C321.25 779.1 298.025 755.875 269.375 755.875L217.5 755.875V755.875Z" fill="#9A4034"/>
<path d="M430 755.875C430 784.525 406.775 807.75 378.125 807.75L326.25 807.75V807.75C326.25 779.1 349.475 755.875 378.125 755.875L430 755.875V755.875Z" fill="#9A4034"/>
<path d="M103.75 812.75C103.75 841.4 80.5248 864.625 51.875 864.625H0V864.625C0 835.975 23.2252 812.75 51.875 812.75H103.75V812.75Z" fill="#9A4034"/>
<path d="M108.75 812.75C108.75 841.4 131.975 864.625 160.625 864.625H212.5V864.625C212.5 835.975 189.275 812.75 160.625 812.75H108.75V812.75Z" fill="#9A4034"/>
<path d="M217.5 864.625C217.5 835.975 240.725 812.75 269.375 812.75L321.25 812.75V812.75C321.25 841.4 298.025 864.625 269.375 864.625L217.5 864.625V864.625Z" fill="#9A4034"/>
<path d="M430 864.625C430 835.975 406.775 812.75 378.125 812.75L326.25 812.75V812.75C326.25 841.4 349.475 864.625 378.125 864.625L430 864.625V864.625Z" fill="#9A4034"/>
<path d="M103.75 921.5C103.75 892.85 80.5248 869.625 51.875 869.625H0V869.625C0 898.275 23.2252 921.5 51.875 921.5H103.75V921.5Z" fill="#9A4034"/>
<path d="M108.75 921.5C108.75 892.85 131.975 869.625 160.625 869.625H212.5V869.625C212.5 898.275 189.275 921.5 160.625 921.5H108.75V921.5Z" fill="#9A4034"/>
<path d="M217.5 869.625C217.5 898.275 240.725 921.5 269.375 921.5L321.25 921.5V921.5C321.25 892.85 298.025 869.625 269.375 869.625L217.5 869.625V869.625Z" fill="#9A4034"/>
<path d="M430 869.625C430 898.275 406.775 921.5 378.125 921.5L326.25 921.5V921.5C326.25 892.85 349.475 869.625 378.125 869.625L430 869.625V869.625Z" fill="#9A4034"/>
</svg>
