<svg width="400" height="600" viewBox="0 0 400 600" fill="none" xmlns="http://www.w3.org/2000/svg">
<circle cx="200" cy="50" r="50" fill="#9A4034"/>
<path d="M400 100C400 210.457 310.457 300 200 300C89.5431 300 0 210.457 0 100L400 100Z" fill="#322F2E"/>
<g clip-path="url(#clip0_712_26)">
<mask id="path-3-inside-1_712_26" fill="white">
<path d="M400 500C400 389.543 310.457 300 200 300C89.5431 300 0 389.543 0 500L400 500Z"/>
</mask>
<g clip-path="url(#clip1_712_26)">
<mask id="path-5-inside-2_712_26" fill="white">
<path d="M20 500C20 400.589 100.589 320 200 320C299.411 320 380 400.589 380 500L20 500Z"/>
</mask>
<g clip-path="url(#clip2_712_26)">
<mask id="path-7-inside-3_712_26" fill="white">
<path d="M40 500C40 411.634 111.634 340 200 340C288.366 340 360 411.634 360 500L40 500Z"/>
</mask>
<g clip-path="url(#clip3_712_26)">
<mask id="path-9-inside-4_712_26" fill="white">
<path d="M60 500C60 422.68 122.68 360 200 360C277.32 360 340 422.68 340 500L60 500Z"/>
</mask>
<g clip-path="url(#clip4_712_26)">
<mask id="path-11-inside-5_712_26" fill="white">
<path d="M80 500C80 433.726 133.726 380 200 380C266.274 380 320 433.726 320 500L80 500Z"/>
</mask>
<g clip-path="url(#clip5_712_26)">
<mask id="path-13-inside-6_712_26" fill="white">
<path d="M100 500C100 444.772 144.772 400 200 400C255.228 400 300 444.772 300 500L100 500Z"/>
</mask>
<g clip-path="url(#clip6_712_26)">
<mask id="path-15-inside-7_712_26" fill="white">
<path d="M120 500C120 455.817 155.817 420 200 420C244.183 420 280 455.817 280 500L120 500Z"/>
</mask>
<mask id="path-17-inside-8_712_26" fill="white">
<path d="M140 500C140 466.863 166.863 440 200 440C233.137 440 260 466.863 260 500L140 500Z"/>
</mask>
<path d="M135 500L135 500C135 464.101 164.101 435 200 435L200 445C169.624 445 145 469.624 145 500L135 500ZM200 435C235.899 435 265 464.101 265 500L265 500L255 500C255 469.624 230.376 445 200 445L200 435ZM260 500L140 500L260 500ZM135 500C135 464.101 164.101 435 200 435L200 435C235.899 435 265 464.101 265 500L255 500C255 469.624 230.376 445 200 445L200 445C169.624 445 145 469.624 145 500L135 500Z" fill="#322F2E" mask="url(#path-17-inside-8_712_26)"/>
</g>
<path d="M115 500C115 453.056 153.056 415 200 415L200 425C158.579 425 125 458.579 125 500L115 500ZM200 415C246.944 415 285 453.056 285 500L275 500C275 458.579 241.421 425 200 425L200 415ZM280 500L120 500L280 500ZM115 500C115 453.056 153.056 415 200 415L200 415C246.944 415 285 453.056 285 500L275 500C275 458.579 241.421 425 200 425L200 425C158.579 425 125 458.579 125 500L115 500Z" fill="#322F2E" mask="url(#path-15-inside-7_712_26)"/>
</g>
<path d="M95 500C95 442.01 142.01 395 200 395L200 405C147.533 405 105 447.533 105 500L95 500ZM200 395C257.99 395 305 442.01 305 500L295 500C295 447.533 252.467 405 200 405L200 395ZM300 500L100 500L300 500ZM95 500C95 442.01 142.01 395 200 395L200 395C257.99 395 305 442.01 305 500L295 500C295 447.533 252.467 405 200 405L200 405C147.533 405 105 447.533 105 500L95 500Z" fill="#322F2E" mask="url(#path-13-inside-6_712_26)"/>
</g>
<path d="M75 500C75 430.964 130.964 375 200 375L200 385C136.487 385 85 436.487 85 500L75 500ZM200 375C269.036 375 325 430.964 325 500L315 500C315 436.487 263.513 385 200 385L200 375ZM320 500L80 500L320 500ZM75 500C75 430.964 130.964 375 200 375L200 375C269.036 375 325 430.964 325 500L315 500C315 436.487 263.513 385 200 385L200 385C136.487 385 85 436.487 85 500L75 500Z" fill="#322F2E" mask="url(#path-11-inside-5_712_26)"/>
</g>
<path d="M55 500C55 419.919 119.919 355 200 355L200 365C125.442 365 65 425.442 65 500L55 500ZM200 355C280.081 355 345 419.919 345 500L335 500C335 425.442 274.558 365 200 365L200 355ZM340 500L60 500L340 500ZM55 500C55 419.919 119.919 355 200 355L200 355C280.081 355 345 419.919 345 500L335 500C335 425.442 274.558 365 200 365L200 365C125.442 365 65 425.442 65 500L55 500Z" fill="#322F2E" mask="url(#path-9-inside-4_712_26)"/>
</g>
<path d="M35 500C35 408.873 108.873 335 200 335L200 345C114.396 345 45 414.396 45 500L35 500ZM200 335C291.127 335 365 408.873 365 500L355 500C355 414.396 285.604 345 200 345L200 335ZM360 500L40 500L360 500ZM35 500C35 408.873 108.873 335 200 335L200 335C291.127 335 365 408.873 365 500L355 500C355 414.396 285.604 345 200 345L200 345C114.396 345 45 414.396 45 500L35 500Z" fill="#322F2E" mask="url(#path-7-inside-3_712_26)"/>
</g>
<path d="M15 500C15 397.827 97.8273 315 200 315L200 325C103.35 325 25 403.35 25 500L15 500ZM200 315C302.173 315 385 397.827 385 500L375 500C375 403.35 296.65 325 200 325L200 315ZM380 500L20 500L380 500ZM15 500C15 397.827 97.8273 315 200 315L200 315C302.173 315 385 397.827 385 500L375 500C375 403.35 296.65 325 200 325L200 325C103.35 325 25 403.35 25 500L15 500Z" fill="#322F2E" mask="url(#path-5-inside-2_712_26)"/>
</g>
<path d="M405 500C405 386.782 313.218 295 200 295V305C307.696 305 395 392.304 395 500H405ZM200 295C86.7816 295 -5 386.782 -5 500H5C5 392.304 92.3045 305 200 305V295ZM0 500L400 500L0 500ZM405 500C405 386.782 313.218 295 200 295C86.7816 295 -5 386.782 -5 500H5C5 392.304 92.3045 305 200 305C307.696 305 395 392.304 395 500H405Z" fill="#322F2E" mask="url(#path-3-inside-1_712_26)"/>
<circle cx="200" cy="550" r="50" fill="#9A4034"/>
<defs>
<clipPath id="clip0_712_26">
<path d="M400 500C400 389.543 310.457 300 200 300C89.5431 300 0 389.543 0 500L400 500Z" fill="white"/>
</clipPath>
<clipPath id="clip1_712_26">
<path d="M20 500C20 400.589 100.589 320 200 320C299.411 320 380 400.589 380 500L20 500Z" fill="white"/>
</clipPath>
<clipPath id="clip2_712_26">
<path d="M40 500C40 411.634 111.634 340 200 340C288.366 340 360 411.634 360 500L40 500Z" fill="white"/>
</clipPath>
<clipPath id="clip3_712_26">
<path d="M60 500C60 422.68 122.68 360 200 360C277.32 360 340 422.68 340 500L60 500Z" fill="white"/>
</clipPath>
<clipPath id="clip4_712_26">
<path d="M80 500C80 433.726 133.726 380 200 380C266.274 380 320 433.726 320 500L80 500Z" fill="white"/>
</clipPath>
<clipPath id="clip5_712_26">
<path d="M100 500C100 444.772 144.772 400 200 400C255.228 400 300 444.772 300 500L100 500Z" fill="white"/>
</clipPath>
<clipPath id="clip6_712_26">
<path d="M120 500C120 455.817 155.817 420 200 420C244.183 420 280 455.817 280 500L120 500Z" fill="white"/>
</clipPath>
</defs>
</svg>
