<svg width="470" height="940" viewBox="0 0 470 940" fill="none" xmlns="http://www.w3.org/2000/svg">
<g clip-path="url(#clip0_474_727)">
<circle cx="235" cy="719" r="200" fill="#9A4034"/>
<circle cx="276" cy="465" r="125" fill="#322F2E" fill-opacity="0.95"/>
<path d="M3.8 96H21V99.12H7.16V108.4H20.76V111.52H7.16V124H3.8V96ZM30.4922 96V114.56C30.4922 116.827 31.0122 118.547 32.0522 119.72C33.1189 120.867 34.6789 121.44 36.7322 121.44C38.7855 121.44 40.3322 120.867 41.3722 119.72C42.4389 118.547 42.9722 116.827 42.9722 114.56V96H46.3322V114.56C46.3322 117.813 45.4789 120.293 43.7722 122C42.0655 123.707 39.7189 124.56 36.7322 124.56C33.7455 124.56 31.3989 123.707 29.6922 122C27.9855 120.293 27.1322 117.813 27.1322 114.56V96H30.4922ZM66.7044 122.56H67.1844V96H70.5444V124H63.8244L55.7444 97.44H55.2644V124H51.9044V96H58.6244L66.7044 122.56ZM85.8766 121.44C87.0232 121.44 87.9966 121.253 88.7966 120.88C89.6232 120.48 90.2899 119.96 90.7966 119.32C91.3299 118.653 91.7166 117.907 91.9566 117.08C92.2232 116.227 92.3566 115.333 92.3566 114.4V113.92H95.7166V114.4C95.7166 115.813 95.5032 117.147 95.0766 118.4C94.6499 119.627 94.0232 120.707 93.1966 121.64C92.3699 122.547 91.3432 123.267 90.1166 123.8C88.8899 124.307 87.4766 124.56 85.8766 124.56C82.7832 124.56 80.3699 123.587 78.6366 121.64C76.9032 119.693 76.0366 116.853 76.0366 113.12V106.88C76.0366 103.253 76.9032 100.44 78.6366 98.44C80.3699 96.44 82.7832 95.44 85.8766 95.44C87.4766 95.44 88.8899 95.7067 90.1166 96.24C91.3432 96.7467 92.3699 97.4667 93.1966 98.4C94.0232 99.3067 94.6499 100.387 95.0766 101.64C95.5032 102.867 95.7166 104.187 95.7166 105.6V106.08H92.3566V105.6C92.3299 104.693 92.1832 103.813 91.9166 102.96C91.6766 102.107 91.2899 101.36 90.7566 100.72C90.2499 100.053 89.5966 99.5333 88.7966 99.16C87.9966 98.76 87.0232 98.56 85.8766 98.56C83.7166 98.56 82.0899 99.3467 80.9966 100.92C79.9299 102.493 79.3966 104.56 79.3966 107.12V112.88C79.3966 115.627 79.9299 117.747 80.9966 119.24C82.0899 120.707 83.7166 121.44 85.8766 121.44ZM100.369 96H120.049V99.12H111.889V124H108.529V99.12H100.369V96ZM125.821 96H143.581V99.12H136.381V120.88H143.581V124H125.821V120.88H133.021V99.12H125.821V96ZM149.353 106.88C149.353 103.253 150.22 100.44 151.953 98.44C153.686 96.44 156.1 95.44 159.193 95.44C162.286 95.44 164.7 96.44 166.433 98.44C168.166 100.44 169.033 103.253 169.033 106.88V113.12C169.033 116.853 168.166 119.693 166.433 121.64C164.7 123.587 162.286 124.56 159.193 124.56C156.1 124.56 153.686 123.587 151.953 121.64C150.22 119.693 149.353 116.853 149.353 113.12V106.88ZM159.193 121.44C161.353 121.44 162.966 120.707 164.033 119.24C165.126 117.747 165.673 115.627 165.673 112.88V107.12C165.673 104.56 165.126 102.493 164.033 100.92C162.966 99.3467 161.353 98.56 159.193 98.56C157.033 98.56 155.406 99.3467 154.313 100.92C153.246 102.493 152.713 104.56 152.713 107.12V112.88C152.713 115.627 153.246 117.747 154.313 119.24C155.406 120.707 157.033 121.44 159.193 121.44ZM189.165 122.56H189.645V96H193.005V124H186.285L178.205 97.44H177.725V124H174.365V96H181.085L189.165 122.56Z" fill="#322F2E"/>
<path d="M3.8 48H21V51.12H7.16V60.4H20.76V63.52H7.16V76H3.8V48ZM26.8922 58.88C26.8922 55.2533 27.7589 52.44 29.4922 50.44C31.2255 48.44 33.6389 47.44 36.7322 47.44C39.8255 47.44 42.2389 48.44 43.9722 50.44C45.7055 52.44 46.5722 55.2533 46.5722 58.88V65.12C46.5722 68.8533 45.7055 71.6933 43.9722 73.64C42.2389 75.5867 39.8255 76.56 36.7322 76.56C33.6389 76.56 31.2255 75.5867 29.4922 73.64C27.7589 71.6933 26.8922 68.8533 26.8922 65.12V58.88ZM36.7322 73.44C38.8922 73.44 40.5055 72.7067 41.5722 71.24C42.6655 69.7467 43.2122 67.6267 43.2122 64.88V59.12C43.2122 56.56 42.6655 54.4933 41.5722 52.92C40.5055 51.3467 38.8922 50.56 36.7322 50.56C34.5722 50.56 32.9455 51.3467 31.8522 52.92C30.7855 54.4933 30.2522 56.56 30.2522 59.12V64.88C30.2522 67.6267 30.7855 69.7467 31.8522 71.24C32.9455 72.7067 34.5722 73.44 36.7322 73.44ZM52.4644 48H55.8244V72.88H70.4644V76H52.4644V48ZM76.9566 48H80.3166V72.88H94.9566V76H76.9566V48ZM100.369 58.88C100.369 55.2533 101.235 52.44 102.969 50.44C104.702 48.44 107.115 47.44 110.209 47.44C113.302 47.44 115.715 48.44 117.449 50.44C119.182 52.44 120.049 55.2533 120.049 58.88V65.12C120.049 68.8533 119.182 71.6933 117.449 73.64C115.715 75.5867 113.302 76.56 110.209 76.56C107.115 76.56 104.702 75.5867 102.969 73.64C101.235 71.6933 100.369 68.8533 100.369 65.12V58.88ZM110.209 73.44C112.369 73.44 113.982 72.7067 115.049 71.24C116.142 69.7467 116.689 67.6267 116.689 64.88V59.12C116.689 56.56 116.142 54.4933 115.049 52.92C113.982 51.3467 112.369 50.56 110.209 50.56C108.049 50.56 106.422 51.3467 105.329 52.92C104.262 54.4933 103.729 56.56 103.729 59.12V64.88C103.729 67.6267 104.262 69.7467 105.329 71.24C106.422 72.7067 108.049 73.44 110.209 73.44ZM143.661 76H137.541L134.941 49.44H134.461L131.861 76H125.741L122.901 48H125.941L128.621 74.56H129.101L131.621 48H137.781L140.301 74.56H140.781L143.461 48H146.501L143.661 76ZM165.793 56.08C165.793 55.1733 165.606 54.3733 165.233 53.68C164.886 52.9867 164.406 52.4133 163.793 51.96C163.18 51.5067 162.473 51.16 161.673 50.92C160.873 50.68 160.033 50.56 159.153 50.56C158.38 50.56 157.646 50.6667 156.953 50.88C156.26 51.0667 155.633 51.3467 155.073 51.72C154.54 52.0933 154.113 52.56 153.793 53.12C153.473 53.6533 153.313 54.28 153.313 55V55.24C153.313 56.0133 153.473 56.68 153.793 57.24C154.113 57.7733 154.58 58.24 155.193 58.64C155.833 59.0133 156.62 59.3333 157.553 59.6C158.486 59.84 159.58 60.0533 160.833 60.24C163.766 60.6933 165.926 61.56 167.313 62.84C168.7 64.0933 169.393 65.7867 169.393 67.92V68.4C169.393 69.6 169.18 70.7067 168.753 71.72C168.353 72.7067 167.74 73.56 166.913 74.28C166.113 75 165.113 75.56 163.913 75.96C162.713 76.36 161.326 76.56 159.753 76.56C157.966 76.56 156.38 76.3067 154.993 75.8C153.633 75.2667 152.486 74.5467 151.553 73.64C150.646 72.7067 149.953 71.6267 149.473 70.4C148.993 69.1467 148.753 67.7867 148.753 66.32V65.12H152.113V66.08C152.113 68.5333 152.78 70.3733 154.113 71.6C155.473 72.8267 157.353 73.44 159.753 73.44C161.833 73.44 163.393 72.9867 164.433 72.08C165.5 71.1467 166.033 69.92 166.033 68.4V68.16C166.033 66.6933 165.486 65.5733 164.393 64.8C163.326 64.0267 161.58 63.4667 159.153 63.12C157.74 62.9333 156.46 62.6533 155.313 62.28C154.193 61.88 153.233 61.3733 152.433 60.76C151.633 60.12 151.02 59.36 150.593 58.48C150.166 57.6 149.953 56.56 149.953 55.36V54.88C149.953 53.7867 150.18 52.7867 150.633 51.88C151.086 50.9733 151.713 50.1867 152.513 49.52C153.34 48.8533 154.313 48.3467 155.433 48C156.58 47.6267 157.833 47.44 159.193 47.44C160.766 47.44 162.166 47.6667 163.393 48.12C164.646 48.5733 165.7 49.1867 166.553 49.96C167.406 50.7067 168.046 51.6 168.473 52.64C168.926 53.6533 169.153 54.72 169.153 55.84V57.52H165.793V56.08Z" fill="#322F2E"/>
<path d="M3.8 -1.90735e-06H21V3.12H7.16V12.4H20.76V15.52H7.16V28H3.8V-1.90735e-06ZM26.8922 10.88C26.8922 7.25333 27.7589 4.44 29.4922 2.44C31.2255 0.439998 33.6389 -0.560002 36.7322 -0.560002C39.8255 -0.560002 42.2389 0.439998 43.9722 2.44C45.7055 4.44 46.5722 7.25333 46.5722 10.88V17.12C46.5722 20.8533 45.7055 23.6933 43.9722 25.64C42.2389 27.5867 39.8255 28.56 36.7322 28.56C33.6389 28.56 31.2255 27.5867 29.4922 25.64C27.7589 23.6933 26.8922 20.8533 26.8922 17.12V10.88ZM36.7322 25.44C38.8922 25.44 40.5055 24.7067 41.5722 23.24C42.6655 21.7467 43.2122 19.6267 43.2122 16.88V11.12C43.2122 8.56 42.6655 6.49333 41.5722 4.92C40.5055 3.34667 38.8922 2.56 36.7322 2.56C34.5722 2.56 32.9455 3.34667 31.8522 4.92C30.7855 6.49333 30.2522 8.56 30.2522 11.12V16.88C30.2522 19.6267 30.7855 21.7467 31.8522 23.24C32.9455 24.7067 34.5722 25.44 36.7322 25.44ZM69.9844 28H66.6244V18.64C66.6244 17.9467 66.4644 17.4133 66.1444 17.04C65.8244 16.6667 65.2644 16.48 64.4644 16.48H55.7444V28H52.3844V-1.90735e-06H62.3844C63.8244 -1.90735e-06 65.0777 0.213332 66.1444 0.639999C67.211 1.04 68.091 1.58667 68.7844 2.28C69.5044 2.97333 70.0377 3.78667 70.3844 4.72C70.7577 5.62667 70.9444 6.58666 70.9444 7.6V8.8C70.9444 9.84 70.651 10.88 70.0644 11.92C69.5044 12.96 68.6244 13.76 67.4244 14.32V14.8C68.2244 14.9333 68.851 15.2533 69.3044 15.76C69.7577 16.2667 69.9844 16.9867 69.9844 17.92V28ZM55.7444 13.36H61.9844C63.8777 13.36 65.2777 12.96 66.1844 12.16C67.1177 11.3333 67.5844 10.1333 67.5844 8.56V7.84C67.5844 6.42667 67.1177 5.29333 66.1844 4.44C65.2777 3.56 63.8777 3.12 61.9844 3.12H55.7444V13.36ZM75.3166 -1.90735e-06H81.7166L85.4766 26.56H85.9566L89.7166 -1.90735e-06H96.1166V28H92.9966V1.44H92.5166L88.7566 28H82.6766L78.9166 1.44H78.4366V28H75.3166V-1.90735e-06Z" fill="#322F2E"/>
<g clip-path="url(#clip1_474_727)">
<rect width="5" height="940" transform="translate(226)" fill="#322F2E"/>
<rect width="5" height="940" transform="translate(241.833)" fill="#322F2E"/>
<rect width="5" height="940" transform="translate(257.667)" fill="#322F2E"/>
<rect width="5" height="940" transform="translate(273.5)" fill="#322F2E"/>
<rect width="5" height="940" transform="translate(289.333)" fill="#322F2E"/>
<rect width="5" height="940" transform="translate(305.167)" fill="#322F2E"/>
<rect width="5" height="940" transform="translate(321)" fill="#322F2E"/>
</g>
</g>
<defs>
<clipPath id="clip0_474_727">
<rect width="470" height="940" fill="white" transform="matrix(1 0 0 -1 0 940)"/>
</clipPath>
<clipPath id="clip1_474_727">
<rect width="100" height="940" fill="white" transform="translate(226)"/>
</clipPath>
</defs>
</svg>
